<?xml version="1.0" encoding="UTF-8"?>
<!DOCTYPE svg PUBLIC "-//W3C//DTD SVG 1.1//EN" "http://www.w3.org/Graphics/SVG/1.1/DTD/svg11.dtd">
<!-- Creator: CorelDRAW X7 -->
<svg xmlns="http://www.w3.org/2000/svg" xml:space="preserve" width="75in" height="12.5in" version="1.1" style="shape-rendering:geometricPrecision; text-rendering:geometricPrecision; image-rendering:optimizeQuality; fill-rule:evenodd; clip-rule:evenodd"
viewBox="0 0 75000 12500"
 xmlns:xlink="http://www.w3.org/1999/xlink">
 <defs>
  <style type="text/css">
   <![CDATA[
    .fil0 {fill:#B10142}
   ]]>
  </style>
 </defs>
 <g id="Layer_x0020_1">
  <metadata id="CorelCorpID_0Corel-Layer"/>
  <g id="_919169583200">
   <g>
    <path class="fil0" d="M9030 926c-7,13 -43,42 -80,66 -37,23 -86,68 -108,98 -24,32 -51,60 -62,64 -12,6 -46,39 -77,76 -178,220 -330,388 -354,396 -15,6 -47,-1 -72,-12 -24,-13 -57,-22 -72,-22 -17,0 -87,-16 -155,-35 -109,-31 -152,-35 -347,-35 -160,0 -244,7 -298,22 -42,11 -102,28 -132,36 -31,9 -61,21 -68,27 -12,10 79,140 141,205 60,63 160,239 253,453 26,57 69,210 82,285 7,35 22,125 35,201 12,77 32,195 44,264 52,295 160,460 374,563 61,29 130,58 153,62 23,6 66,20 97,31 30,12 78,26 104,32 26,7 111,23 187,40 77,17 152,35 167,43 15,7 60,15 97,17l70 4 4 139c3,125 -3,183 -39,396 -21,113 -107,345 -182,490 -71,133 -103,187 -125,208 -14,14 -26,29 -26,36 0,16 -161,182 -177,182 -8,0 -25,13 -39,28 -13,15 -30,28 -37,28 -8,0 -29,12 -47,26 -20,15 -70,38 -114,50 -43,14 -104,33 -135,45 -130,48 -507,47 -611,-2 -22,-11 -72,-33 -108,-51 -66,-31 -218,-178 -218,-210 0,-8 -9,-26 -20,-37 -42,-46 -92,-237 -92,-350 0,-267 144,-485 378,-577 95,-37 114,-40 303,-40 163,0 217,5 278,26 104,36 169,81 193,128 10,22 23,51 30,64 28,56 12,174 -41,289 -28,60 -147,180 -203,205 -22,12 -60,28 -81,39 -22,11 -65,24 -97,28 -71,11 -93,28 -93,68 0,52 32,67 118,56 164,-20 368,-159 456,-311 183,-316 93,-568 -247,-692 -102,-36 -528,-36 -619,0 -137,57 -215,101 -273,158 -58,59 -171,218 -171,243 0,6 -12,39 -28,71 -25,54 -28,82 -22,261 4,172 10,211 38,277 102,239 247,386 456,468 92,36 319,59 438,44 46,-5 118,-11 161,-11 43,-1 97,-11 118,-22 22,-11 56,-21 75,-21 20,0 47,-10 61,-21 16,-11 39,-21 52,-21 57,0 305,-190 387,-294 32,-40 65,-83 74,-95 21,-25 125,-207 136,-236 4,-11 25,-58 46,-104 22,-46 51,-121 66,-167 14,-45 32,-95 39,-111 36,-82 63,-251 70,-458l7 -222 229 -9c135,-5 264,-18 312,-30 46,-13 131,-33 188,-47 97,-23 323,-127 383,-175 14,-13 47,-39 74,-60 39,-32 151,-163 193,-222 32,-46 47,-74 66,-117 13,-26 37,-80 55,-118 40,-87 104,-272 104,-303 0,-12 12,-50 26,-82 14,-33 43,-133 64,-222 21,-90 47,-180 57,-200 11,-19 19,-55 19,-78 0,-23 9,-61 20,-84 10,-25 39,-107 64,-184 25,-76 50,-146 55,-153 6,-8 14,-31 20,-55 5,-22 16,-46 25,-50 7,-4 14,-31 15,-56l3 -47 -125 4c-68,3 -188,14 -264,25 -76,11 -229,27 -340,35 -111,7 -213,21 -227,28 -15,8 -69,18 -121,22l-95 8 -53 -86c-170,-278 -475,-584 -582,-584 -10,0 -28,-13 -39,-30 -17,-25 -36,-29 -126,-32 -88,-2 -109,2 -118,21l0 0zm188 146c130,32 363,239 499,442 107,158 107,175 -7,223 -26,11 -61,28 -76,38 -93,61 -184,132 -227,182 -29,30 -61,66 -73,78 -25,26 -111,157 -143,219 -13,25 -27,46 -29,46 -5,0 -20,-27 -37,-60 -82,-161 -301,-369 -504,-475 -54,-29 -104,-57 -111,-64 -39,-34 446,-569 577,-633 31,-17 47,-17 131,4l0 0zm-1293 595c46,11 116,23 153,29 39,5 89,16 111,26 24,10 79,29 125,45 100,30 293,127 389,194 254,179 385,407 409,714 12,154 -19,423 -64,560 -77,234 -85,252 -110,252 -29,0 -90,-82 -139,-187 -19,-42 -47,-99 -62,-127 -14,-27 -27,-59 -27,-70 0,-11 -12,-46 -28,-78 -15,-31 -27,-67 -27,-78 0,-67 -148,-461 -218,-581 -159,-270 -499,-516 -873,-631 -86,-27 -118,-64 -65,-78 56,-16 349,-9 426,9l0 1zm2577 48c0,7 -15,17 -34,21 -43,11 -222,114 -244,140 -10,11 -22,21 -28,21 -33,0 -176,171 -251,299 -47,82 -165,366 -165,398 0,10 -9,42 -20,74 -11,30 -37,111 -57,180 -68,231 -164,466 -190,466 -6,0 -11,8 -11,16 0,31 -128,175 -189,217 -68,45 -171,86 -217,86 -59,0 -59,0 -30,-66 48,-114 58,-141 93,-260 87,-302 84,-290 86,-590l1 -285 53 -104c107,-207 267,-381 411,-446 35,-17 85,-40 113,-54 26,-14 73,-31 104,-36 29,-6 73,-19 98,-30 25,-9 73,-18 105,-19 33,0 97,-8 143,-20 95,-20 229,-26 229,-8l0 0zm387 35c14,15 13,29 -2,60 -12,20 -28,72 -38,112 -10,42 -25,78 -35,81 -9,4 -15,18 -11,30 3,13 -7,64 -23,113 -16,48 -28,95 -28,104 0,14 -24,100 -85,300 -14,50 -26,104 -26,121 0,16 -6,33 -13,37 -5,4 -19,38 -29,74 -31,123 -108,294 -187,419 -113,179 -291,309 -527,382 -178,54 -508,111 -508,88 0,-3 51,-59 115,-123 97,-98 126,-138 186,-262 39,-81 77,-168 85,-195 8,-26 28,-88 43,-138 15,-50 42,-135 57,-188 33,-111 43,-140 97,-285 45,-119 63,-162 86,-201 138,-222 211,-296 382,-381 140,-69 168,-80 275,-113 54,-16 110,-35 125,-41 39,-16 43,-16 61,6l0 0zm-3102 214c169,83 251,140 363,250 103,100 184,212 228,319 17,36 36,84 47,107 10,22 28,79 42,125 65,227 113,364 154,461 11,24 20,47 20,52 0,19 133,240 171,284 55,66 36,81 -77,60 -130,-22 -275,-57 -304,-72 -14,-9 -38,-14 -53,-14 -28,0 -93,-26 -221,-88 -133,-63 -233,-226 -265,-433 -8,-54 -21,-119 -29,-146 -7,-26 -14,-73 -14,-104 0,-68 -58,-349 -90,-444 -52,-149 -78,-210 -141,-321 -18,-34 -33,-72 -33,-89 0,-24 6,-26 38,-20 20,6 94,38 164,73l0 0z"/>
    <path class="fil0" d="M30170 1732c-356,259 -595,466 -904,784 -527,541 -952,1153 -1356,1955 -435,861 -708,1605 -1200,3252 -54,184 -108,363 -119,399l-23 67 -65 0 -64 0 -61 -261c-139,-605 -316,-1303 -440,-1725 -161,-550 -375,-1100 -625,-1602 -539,-1082 -1221,-1869 -2103,-2426 -154,-97 -165,-102 -305,-127 -503,-84 -938,-115 -1493,-105 -521,10 -866,50 -1341,157 -614,139 -1221,357 -1791,644 -410,207 -574,311 -716,452 -162,161 -473,432 -896,783 -513,428 -734,664 -901,965 -60,109 -161,367 -149,379 3,3 110,-102 239,-233 467,-472 884,-815 1402,-1154 1144,-749 2323,-1122 3536,-1122 415,0 829,37 1064,97 83,22 139,49 243,118 280,186 605,469 840,732 554,618 932,1301 1239,2239 193,589 326,1112 542,2133 223,1061 334,1554 454,2035 79,317 211,771 229,793 15,18 404,186 622,269 260,98 545,131 752,88l118 -25 2 -229c27,-2124 442,-4159 1202,-5882 355,-809 837,-1664 1318,-2342 154,-217 237,-253 433,-187 170,57 463,209 514,268 358,408 764,1039 1056,1643 398,829 691,1679 1126,3277 299,1102 407,1495 460,1688 28,99 68,249 91,331 23,81 62,191 88,243 25,51 97,220 160,377 64,157 130,313 150,348 55,94 190,227 279,275 75,38 96,43 364,63 302,23 464,17 671,-27 155,-32 356,-106 475,-174 118,-67 297,-226 375,-332 47,-65 50,-71 34,-125 -18,-68 -96,-158 -168,-196 -29,-14 -122,-44 -207,-68 -333,-90 -330,-87 -475,-465 -269,-704 -534,-1508 -872,-2639 -32,-107 -72,-242 -90,-299 -18,-56 -81,-263 -139,-458 -290,-965 -403,-1312 -567,-1750 -185,-498 -350,-883 -571,-1340 -197,-406 -326,-631 -450,-785 -129,-160 -422,-457 -537,-544 -336,-254 -657,-359 -1102,-359l-176 0 -172 127 0 0z"/>
    <path class="fil0" d="M5670 1914c-36,90 -57,211 -70,393 -13,233 17,471 93,704 100,301 267,515 488,625 114,57 126,60 269,64 149,5 214,-7 409,-81 33,-14 50,2 107,99 52,92 82,115 118,96 41,-22 36,-57 -22,-141 -107,-158 -106,-151 -50,-380 15,-65 25,-174 27,-329l6 -231 -45 -116c-37,-98 -58,-130 -136,-207 -50,-50 -108,-100 -127,-112 -157,-84 -225,-118 -330,-159 -66,-27 -141,-61 -166,-75 -25,-16 -57,-28 -71,-28 -13,0 -36,-10 -52,-21 -13,-11 -34,-21 -45,-21 -11,0 -49,-12 -84,-29 -34,-17 -82,-37 -105,-47 -22,-8 -70,-31 -102,-47 -33,-16 -65,-29 -72,-29 -5,0 -23,33 -40,72l0 0zm201 171c14,11 41,20 57,20 17,0 34,6 39,14 4,7 28,20 53,27 76,22 315,125 468,200 174,84 286,186 344,311 34,73 38,98 42,278 6,182 -12,351 -36,351 -24,-1 -72,-56 -121,-136 -60,-102 -82,-115 -119,-77 -34,32 -34,31 95,223 100,146 105,171 35,205 -41,21 -90,28 -233,32l-181 4 -83 -44c-93,-51 -221,-175 -265,-257 -84,-156 -99,-192 -110,-239 -6,-25 -18,-62 -29,-83 -11,-21 -20,-47 -20,-60 0,-14 -14,-92 -29,-174 -25,-123 -29,-182 -22,-318 4,-91 15,-189 24,-215 9,-26 18,-57 22,-67 7,-22 36,-20 69,5z"/>
    <path class="fil0" d="M12412 1994c-142,14 -245,39 -424,102 -133,46 -329,136 -429,197 -79,47 -224,158 -263,200 -109,117 -178,207 -203,265 -13,35 -36,85 -48,111 -32,71 -31,295 3,368 61,136 151,271 200,303 9,6 23,22 32,38 11,22 1,40 -57,107 -100,113 -105,123 -60,152 40,27 39,28 174,-130 50,-60 51,-60 208,-86 87,-16 197,-31 243,-36 47,-6 103,-18 124,-30 20,-11 52,-19 70,-19 20,0 92,-28 163,-61 322,-154 408,-349 442,-1008 11,-228 25,-369 41,-430 7,-23 -51,-57 -91,-54 -16,2 -71,6 -125,11l0 0zm2 167c35,0 36,1 25,79 -5,45 -14,186 -21,317 -11,236 -36,386 -83,507 -26,62 -122,193 -144,194 -6,0 -29,15 -52,34 -21,18 -69,44 -105,56 -36,13 -77,28 -88,34 -61,32 -375,86 -375,65 0,-10 2,-12 84,-111 91,-110 102,-131 83,-154 -35,-42 -68,-21 -190,125 -131,155 -159,171 -207,114 -38,-43 -123,-175 -142,-223 -29,-68 -21,-250 14,-326 101,-215 283,-383 575,-529 139,-70 264,-117 353,-133 26,-5 61,-14 76,-21 47,-22 124,-39 143,-34 11,3 35,6 54,6l0 0z"/>
    <path class="fil0" d="M4725 3094c-7,18 -26,97 -43,178 -16,81 -37,164 -44,188 -7,22 -18,72 -25,111 -7,37 -21,104 -32,146 -32,125 -65,308 -65,363 0,74 -38,109 -118,109 -35,0 -99,12 -142,26 -44,15 -118,38 -164,50 -239,67 -494,242 -567,388 -38,79 -38,82 -18,145 27,80 95,227 141,300 19,31 39,66 44,77 4,11 54,89 111,171 56,82 102,152 102,157 0,4 8,16 18,26 43,50 51,63 51,89 0,15 -14,44 -32,67 -18,20 -47,62 -64,91 -18,29 -39,60 -47,70 -17,16 -114,208 -156,305 -58,135 -101,381 -84,472 9,52 11,53 61,44 28,-6 58,-14 65,-20 17,-14 157,-54 243,-71 302,-57 510,-69 649,-40 36,8 116,19 178,26 61,7 126,17 145,21 20,6 75,15 125,24 50,7 125,19 167,28 164,34 369,11 499,-56 109,-57 295,-258 423,-460 22,-34 49,-72 60,-83 11,-11 43,-67 71,-124 28,-57 66,-115 86,-129 35,-25 37,-25 132,4 54,17 101,38 107,46 5,9 14,11 18,6 8,-9 186,76 292,139 184,108 448,332 586,495 169,203 240,478 193,746 -59,324 -170,504 -367,603 -192,95 -504,89 -704,-11 -261,-129 -385,-356 -342,-619 10,-59 27,-125 38,-148 11,-22 19,-48 19,-57 0,-9 17,-47 38,-84 95,-177 194,-250 330,-248 61,2 99,12 140,35 219,128 338,378 277,579 -8,27 -3,34 43,53 49,21 54,21 69,-1 25,-34 39,-161 28,-248 -23,-175 -157,-376 -317,-476 -131,-83 -370,-86 -476,-7 -153,118 -262,307 -314,542 -32,146 -32,191 0,315 31,117 79,204 171,304 60,67 228,188 258,188 6,0 36,11 67,26 29,14 89,29 131,35 41,5 83,17 93,23 22,20 211,9 316,-18 95,-23 192,-61 243,-93 67,-41 195,-159 195,-179 0,-7 11,-22 25,-35 23,-20 43,-61 110,-215 34,-79 87,-340 87,-429 0,-90 -46,-325 -72,-372 -10,-15 -31,-57 -47,-92 -17,-35 -48,-82 -67,-105 -20,-24 -36,-48 -36,-53 0,-32 -425,-438 -459,-438 -5,0 -18,-8 -26,-19 -19,-24 -178,-120 -307,-186 -96,-49 -157,-75 -271,-110 -37,-12 -83,-32 -101,-43 -36,-24 -35,-46 18,-204 18,-54 37,-134 42,-178 5,-43 15,-83 22,-87 7,-5 12,-109 12,-232 0,-266 -20,-363 -119,-552 -83,-161 -174,-260 -420,-460 -48,-38 -468,-315 -600,-394 -95,-57 -438,-300 -555,-394 -97,-80 -120,-85 -138,-41l0 0zm216 263c7,12 97,75 225,158 11,7 79,53 151,100 71,49 133,88 139,88 4,0 39,22 75,48 37,27 71,49 74,49 5,0 193,125 318,212 177,125 358,325 425,475 84,189 105,438 58,674 -44,212 -49,224 -78,168 -83,-164 -110,-200 -229,-321 -122,-122 -229,-203 -594,-444 -243,-161 -450,-360 -509,-486 -11,-27 -28,-59 -34,-70 -7,-11 -27,-64 -44,-117 -25,-79 -30,-130 -31,-305 -2,-115 2,-218 8,-228 14,-21 33,-22 46,-1l0 0zm-168 485c5,48 15,98 20,111 7,11 31,62 53,114 74,162 225,340 406,473 41,31 79,60 83,64 4,4 18,14 31,22 101,60 493,334 566,397 113,99 210,221 256,323 42,94 61,255 36,301l-17 31 -50 -48c-29,-26 -94,-79 -148,-116 -53,-36 -103,-75 -109,-85 -5,-10 -16,-18 -23,-18 -6,0 -71,-35 -145,-76 -72,-42 -140,-77 -150,-77 -9,0 -30,-10 -44,-21 -15,-11 -38,-21 -49,-21 -12,0 -40,-9 -62,-20 -21,-11 -54,-21 -72,-21 -18,0 -46,-6 -64,-13 -18,-7 -70,-23 -116,-37 -73,-21 -97,-38 -209,-150 -200,-200 -275,-334 -313,-557 -28,-170 3,-514 59,-643 34,-79 45,-65 61,66l0 1zm-264 551c9,83 69,279 91,301 7,9 13,23 13,32 0,25 121,197 205,289 39,45 69,85 66,90 -4,6 -31,14 -59,18 -75,9 -219,56 -316,102 -86,40 -266,154 -309,197 -70,70 -98,86 -120,78 -21,-8 -199,-258 -264,-374 -14,-23 -39,-66 -57,-97 -77,-131 -118,-229 -118,-282 0,-50 8,-64 87,-136 86,-82 231,-167 336,-200 31,-10 75,-25 98,-35 62,-26 213,-59 279,-61l58 -1 10 79 0 0zm708 878c45,7 95,19 111,27 15,7 89,37 164,64 74,30 135,57 135,64 0,7 11,13 26,13 14,0 34,9 43,21 10,11 22,20 29,20 13,0 160,93 193,123 12,9 48,37 81,61l60 43 -59 26c-107,47 -243,57 -700,47 -251,-5 -459,-4 -500,5 -193,36 -238,48 -359,105 -184,85 -309,178 -503,377 -93,94 -175,172 -183,172 -46,0 59,-321 152,-464 118,-182 152,-228 255,-339 148,-164 433,-338 590,-363 39,-5 75,-15 80,-20 13,-14 277,-2 385,18l0 0zm931 584c9,16 -63,139 -80,139 -6,0 -11,7 -11,14 0,31 -214,314 -291,385 -104,97 -146,108 -402,108 -179,-1 -250,-7 -321,-26 -50,-14 -130,-31 -180,-38 -50,-7 -128,-18 -174,-25 -119,-18 -457,-18 -562,0 -93,17 -138,18 -149,7 -12,-11 157,-178 263,-258 126,-96 314,-190 432,-218 198,-45 229,-47 629,-38 415,10 628,-2 748,-43 68,-23 87,-25 98,-7z"/>
    <path class="fil0" d="M13284 3303c-103,158 -174,247 -281,351 -111,107 -287,243 -316,243 -10,0 -23,10 -27,21 -5,11 -19,21 -33,21 -14,0 -32,9 -42,21 -10,11 -28,20 -40,20 -14,0 -45,16 -71,35 -26,20 -56,35 -65,35 -10,0 -52,18 -92,40 -42,22 -108,56 -150,72 -114,49 -280,171 -343,252 -111,147 -136,237 -132,490 4,224 26,419 61,526 29,91 24,148 -15,148 -15,0 -29,5 -35,12 -4,7 -43,21 -87,29 -43,10 -110,27 -149,39 -57,20 -130,24 -417,24 -318,0 -358,-3 -479,-32 -144,-36 -205,-58 -316,-113 -138,-66 -327,-255 -384,-383 -14,-31 -40,-85 -58,-121 -18,-36 -33,-78 -33,-91 0,-14 -7,-32 -16,-41 -8,-8 -19,-72 -23,-140 -7,-143 19,-243 96,-357 43,-64 184,-188 215,-188 8,0 23,-9 33,-20 10,-11 70,-38 135,-57 103,-34 132,-36 258,-29 115,5 156,13 213,41 94,47 236,179 276,259 108,215 138,451 68,556 -21,32 -62,69 -96,85 -51,27 -77,29 -196,24 -119,-4 -147,-11 -211,-46 -102,-56 -173,-119 -212,-193 -38,-71 -60,-78 -143,-43 -70,29 -67,47 25,194 37,59 151,153 236,192 105,50 308,97 375,89 193,-28 330,-111 397,-240 32,-63 35,-85 35,-242 0,-172 0,-174 -61,-324 -34,-82 -72,-164 -86,-182 -16,-18 -27,-37 -27,-43 0,-43 -272,-257 -330,-257 -13,-1 -39,-9 -59,-20 -52,-31 -409,-30 -505,2 -111,36 -232,100 -338,178 -68,51 -198,217 -222,282 -10,26 -26,58 -35,69 -12,14 -18,78 -18,203 0,149 6,199 31,272 75,227 169,388 310,528 111,111 304,239 391,257 25,6 54,16 67,22 58,31 186,57 330,70 91,8 174,21 187,28 30,15 326,16 336,1 5,-11 209,-33 290,-32 12,0 40,-10 62,-21 21,-9 53,-19 73,-19 19,0 51,-9 71,-20 95,-50 134,-34 166,63 15,48 102,239 125,276 7,11 24,43 39,70 71,130 268,358 376,436 59,41 250,136 327,162 30,10 90,23 132,28 41,4 114,17 160,27 98,20 611,11 687,-13 31,-10 228,-15 551,-15 323,0 506,-6 512,-14 4,-9 -3,-31 -17,-53 -15,-21 -57,-100 -93,-176 -36,-77 -72,-149 -79,-160 -7,-11 -21,-40 -31,-63 -17,-36 -37,-82 -105,-229 -32,-68 -107,-203 -145,-257 -49,-71 -47,-101 6,-158 57,-63 193,-235 193,-243 0,-4 21,-40 46,-81 25,-40 68,-126 93,-191 43,-107 48,-132 48,-257 0,-118 -4,-145 -28,-175 -61,-82 -172,-145 -527,-297 -23,-10 -85,-32 -139,-49 -53,-18 -103,-38 -110,-44 -8,-6 -26,-12 -43,-12 -15,0 -42,-9 -57,-20 -26,-17 -31,-38 -37,-177 -10,-204 -50,-382 -130,-562 -11,-24 -19,-53 -19,-63 0,-11 -13,-32 -28,-46 -15,-14 -28,-30 -28,-36 0,-29 -176,-248 -200,-248 -4,0 -37,45 -73,100l0 0zm-4 502c0,24 -10,81 -23,127 -11,46 -26,105 -32,132 -5,26 -16,61 -25,76 -8,15 -29,57 -44,92 -65,151 -235,311 -550,519 -324,214 -456,334 -610,547 -22,31 -46,53 -53,49 -5,-4 -11,-154 -11,-335l0 -327 43 -71c52,-84 137,-164 214,-204 31,-16 66,-34 77,-39 55,-32 226,-113 237,-113 21,0 314,-164 397,-223 137,-95 307,-241 324,-275 13,-27 18,-30 35,-16 11,10 21,38 21,61l0 0zm215 116c4,29 14,75 21,102 7,27 18,112 22,188 8,112 4,168 -21,297 -33,174 -90,352 -121,377 -11,8 -19,20 -19,27 0,53 -188,241 -296,296 -85,45 -224,100 -281,114 -22,4 -69,18 -104,29 -90,31 -514,43 -514,17 0,-45 178,-231 299,-313 39,-26 118,-82 179,-123 60,-42 111,-77 114,-77 4,0 14,-5 24,-13 73,-62 105,-84 112,-84 38,0 314,-265 314,-300 0,-5 10,-22 24,-36 79,-87 198,-397 198,-514 0,-60 39,-50 49,13l0 0zm404 634c54,18 110,39 125,48 14,7 79,33 144,58 148,57 274,118 320,153 32,25 35,33 32,139 -2,111 -13,148 -92,298 -39,77 -103,171 -154,229 -24,27 -57,67 -72,89 -28,39 -32,41 -74,24 -23,-11 -43,-28 -43,-38 0,-11 -7,-19 -15,-19 -8,0 -47,-28 -86,-61 -41,-32 -110,-78 -156,-99 -46,-21 -86,-43 -90,-48 -4,-6 -25,-14 -49,-18 -104,-21 -234,-62 -239,-75 -2,-7 20,-46 50,-85 95,-118 193,-332 224,-482 22,-111 38,-146 60,-146 9,0 62,15 115,33l0 0zm-474 877c148,23 259,59 339,109 31,20 63,37 70,37 43,0 312,311 344,398 6,14 20,40 34,60 13,19 27,49 33,65 7,27 3,32 -22,32 -17,0 -50,-12 -74,-26 -24,-14 -78,-41 -119,-57 -42,-17 -89,-36 -105,-42 -15,-7 -55,-15 -90,-19 -35,-4 -128,-17 -208,-28 -122,-17 -199,-18 -479,-6 -298,14 -353,14 -506,-8 -218,-31 -344,-85 -444,-189 -110,-115 -98,-139 77,-139 155,0 439,-33 532,-64 35,-11 74,-19 88,-19 14,0 48,-13 79,-28 31,-15 67,-28 83,-28 16,0 28,-5 28,-14 0,-6 17,-18 38,-22 20,-5 52,-18 72,-29 19,-10 51,-15 71,-11 19,4 91,17 159,28l0 0zm-1195 575c23,14 58,30 77,36 20,5 43,17 53,25 11,8 89,29 174,47 150,32 171,32 607,24 461,-10 589,-2 743,44 76,22 186,74 208,97 7,7 42,32 75,56 33,22 104,89 158,150 107,122 107,140 -1,142 -36,0 -321,8 -635,19 -440,14 -601,15 -708,3 -138,-17 -271,-56 -314,-95 -11,-11 -32,-19 -43,-19 -12,0 -29,-10 -39,-21 -10,-11 -25,-21 -33,-21 -22,0 -231,-193 -231,-215 0,-8 -12,-28 -29,-43 -17,-14 -54,-67 -83,-118 -78,-131 -71,-167 21,-111l0 0z"/>
    <path class="fil0" d="M45418 3579c-56,8 -118,24 -134,35l-32 19 0 3400 1 3399 221 284c121,157 254,320 294,363 87,90 214,158 339,181 135,23 149,13 417,-302 786,-926 1013,-1171 1289,-1392 117,-93 280,-206 349,-241l41 -22 117 186c236,372 498,697 835,1034 308,310 595,535 888,696 144,79 331,116 605,114 500,-1 950,-153 1659,-561 111,-64 234,-135 271,-160l70 -44 26 -149 25 -147 -36 -61c-43,-75 -113,-113 -154,-86 -202,132 -422,244 -595,303 -101,34 -158,44 -273,50 -178,7 -292,-17 -453,-95 -278,-135 -492,-346 -908,-903 -753,-1005 -1200,-1501 -1482,-1644l-74 -36 -83 42c-198,100 -416,262 -631,470 -75,74 -300,321 -500,550 -672,773 -1110,1257 -1135,1257 -7,0 -12,-87 -12,-194 0,-390 50,-1038 160,-2054 173,-1610 244,-2459 247,-2981l3 -278 -46 -105c-161,-372 -579,-781 -920,-896 -119,-40 -245,-50 -389,-32l0 0z"/>
    <path class="fil0" d="M57455 3598c-71,25 -118,62 -157,119l-32 45 0 981c1,1511 18,2204 90,3487 57,1016 121,1742 237,2705 12,86 14,88 235,237 153,103 297,170 365,170 14,0 75,-19 135,-41 78,-28 113,-48 121,-69 21,-60 67,-335 103,-618 37,-314 79,-502 139,-634 21,-45 39,-83 41,-83 2,0 309,121 682,269 1524,606 1942,757 2393,869 671,165 1199,190 1764,83 295,-57 689,-193 739,-257 15,-18 127,-100 249,-181 121,-80 253,-175 291,-209 131,-118 167,-254 112,-414l-25 -70 -131 2c-72,0 -293,3 -492,4 -380,4 -509,-4 -916,-63 -642,-91 -1281,-250 -2445,-607 -443,-136 -966,-290 -1297,-380l-143 -40 1180 -1000c650,-549 1178,-1000 1173,-1002 -57,-16 -406,-28 -496,-16 -436,54 -902,326 -1424,834 -73,71 -273,275 -444,454 -297,310 -685,682 -742,713 -30,17 -33,133 33,-1635 24,-604 50,-1310 60,-1569l18 -472 -69 -530 -70 -529 -147 -104c-211,-151 -360,-240 -548,-332 -257,-125 -452,-164 -582,-117l0 0z"/>
    <path class="fil0" d="M37280 4293c-234,46 -507,157 -687,276 -61,42 -159,125 -218,185 -111,114 -137,165 -137,272 0,46 90,275 246,618l39 89 159 63c455,177 516,183 713,55 467,-303 544,-364 646,-515 87,-132 126,-233 143,-383 16,-146 -2,-270 -57,-387 -65,-137 -184,-229 -354,-275 -88,-23 -373,-23 -493,2l0 0z"/>
    <path class="fil0" d="M54128 4294c-232,50 -462,142 -639,252 -130,82 -330,269 -364,344 -55,120 -37,182 185,678l75 165 158 63c457,179 514,183 720,51 451,-292 572,-392 669,-554 84,-140 110,-243 111,-418 0,-154 -18,-240 -73,-347 -53,-103 -188,-198 -336,-236 -91,-25 -389,-23 -506,2l0 0z"/>
    <path class="fil0" d="M72092 4842c-399,40 -792,250 -1039,552 -240,293 -357,618 -357,998 0,209 24,354 86,530 186,531 678,936 1232,1017 179,26 477,11 639,-34 684,-190 1154,-804 1154,-1508 0,-668 -427,-1265 -1061,-1481 -191,-65 -453,-95 -654,-75l0 1zm521 226c410,122 708,379 889,764 208,443 144,1004 -160,1397 -71,93 -228,244 -319,307 -100,69 -307,161 -438,196 -164,41 -412,51 -573,21 -528,-100 -931,-464 -1088,-988 -36,-115 -39,-143 -39,-368 0,-224 3,-253 38,-368 145,-482 515,-849 975,-962 168,-44 166,-44 389,-38 173,3 227,10 326,39l0 0z"/>
    <path class="fil0" d="M71512 5573c-6,5 -10,377 -10,827l0 817 166 0 167 0 0 -341 0 -340 104 0c188,0 211,21 475,417l175 263 199 0 199 0 -152 -240c-158,-250 -260,-376 -348,-436 -31,-19 -55,-40 -55,-46 0,-5 27,-14 57,-19 150,-24 296,-143 341,-278 32,-96 22,-300 -20,-379 -82,-158 -194,-221 -436,-240 -179,-16 -849,-18 -862,-5l0 0zm906 303c134,78 128,289 -8,360 -47,25 -85,29 -314,33l-261 6 0 -207c0,-114 4,-213 11,-218 6,-6 125,-9 267,-6 228,4 262,7 305,32l0 0z"/>
    <path class="fil0" d="M9570 5651c-57,43 -221,359 -221,425 0,9 -12,41 -28,71 -15,31 -28,75 -28,100 -1,25 -9,71 -22,101 -11,31 -23,94 -28,139 -9,111 -18,146 -31,146 -7,0 -16,-16 -20,-39 -4,-21 -17,-82 -29,-134 -13,-55 -33,-142 -45,-195 -65,-289 -181,-510 -295,-557 -53,-22 -148,-21 -238,4 -78,23 -229,125 -267,182 -168,257 -194,303 -188,334 2,16 22,0 61,-53 171,-229 341,-343 462,-307 28,8 64,18 81,22 16,4 44,32 62,60 45,72 122,251 122,286 2,17 10,54 21,85 11,30 36,180 56,333 33,256 68,496 85,574 4,19 27,41 68,61 93,46 98,36 109,-217 4,-118 16,-247 24,-289 8,-40 17,-115 21,-167 3,-52 14,-115 23,-138 11,-25 20,-71 21,-100 2,-31 16,-96 31,-146 15,-50 41,-136 57,-189 54,-181 71,-210 112,-195 21,9 67,92 67,121 0,10 12,42 26,72 36,75 71,205 85,307 6,46 19,118 31,160 12,42 26,124 30,181 4,57 18,139 29,180 11,42 21,100 21,129 0,30 14,102 31,159 23,82 37,107 62,116 60,23 103,14 145,-27 47,-49 51,-92 11,-135 -16,-17 -31,-39 -32,-49 -2,-11 -14,-52 -27,-94 -12,-42 -23,-93 -23,-114 0,-19 -13,-86 -28,-146 -15,-61 -28,-130 -28,-157 0,-25 -12,-97 -26,-160 -15,-61 -42,-177 -59,-258 -15,-80 -41,-179 -55,-219 -14,-42 -26,-84 -26,-93 0,-30 -80,-139 -119,-166 -40,-26 -61,-27 -91,-4l0 0z"/>
    <path class="fil0" d="M11182 6344c-50,7 -108,22 -130,34 -22,9 -47,19 -56,19 -9,0 -72,36 -140,81 -290,187 -493,466 -543,743 -47,275 4,625 144,975 34,79 142,287 164,314 11,11 20,26 20,32 0,11 111,163 129,176 22,17 -11,54 -163,182 -84,73 -190,172 -232,221 -95,111 -207,257 -207,272 0,5 -9,29 -20,51 -13,24 -39,89 -59,146 -47,135 -61,403 -27,536 43,170 63,239 100,334 19,52 40,112 44,132 6,19 21,52 35,76 14,22 25,53 25,67 0,15 12,41 27,61 16,19 28,43 28,52 0,16 13,48 84,209 13,30 38,96 57,146 16,50 34,95 40,104 5,7 29,79 54,160 24,80 50,163 58,187 9,22 20,58 23,81 4,20 16,37 27,37 17,0 182,-136 254,-208 16,-16 232,-207 292,-259 35,-29 121,-112 192,-184l129 -131 58 18c32,9 66,22 73,28 19,15 197,65 319,90 54,11 125,27 160,34 105,23 225,18 327,-17 152,-49 212,-89 244,-163 41,-93 81,-333 83,-507 1,-84 5,-212 11,-284l8 -131 146 -57c313,-119 557,-291 711,-498 67,-89 79,-113 64,-127 -10,-9 -73,-30 -143,-48 -68,-17 -130,-36 -139,-43 -7,-7 -28,-13 -46,-13 -18,0 -57,-11 -84,-26 -28,-14 -78,-38 -113,-53 -89,-40 -328,-192 -386,-245 -61,-56 -115,-108 -297,-281 -163,-156 -286,-249 -400,-299 -67,-29 -96,-33 -243,-33 -171,1 -247,16 -424,90 -35,14 -122,48 -194,76 -73,28 -148,61 -167,75 -49,34 -147,70 -161,59 -47,-34 -192,-255 -265,-405 -49,-98 -100,-241 -125,-343 -11,-51 -28,-105 -35,-119 -21,-42 -40,-314 -31,-433 5,-62 21,-139 35,-173 14,-33 26,-66 26,-75 0,-26 109,-195 163,-254 119,-125 276,-235 439,-303 71,-30 282,-32 346,-4 25,13 69,29 98,38 29,9 57,25 61,36 5,11 16,19 25,19 24,0 198,161 221,207 100,186 97,179 99,349 0,148 -3,164 -38,222 -109,182 -357,361 -527,382 -118,15 -180,0 -242,-61 -74,-70 -125,-220 -111,-325 15,-117 53,-203 118,-276 46,-52 58,-75 51,-99 -8,-35 -68,-107 -87,-107 -36,0 -167,161 -213,262 -32,69 -34,95 -34,257 0,178 1,184 45,270 46,89 121,175 184,214 19,11 75,30 125,43 84,21 97,21 201,-4 138,-31 189,-52 278,-109 115,-73 148,-100 247,-201 135,-139 190,-274 190,-464 0,-183 -50,-333 -154,-465 -22,-28 -40,-56 -40,-60 0,-17 -158,-158 -176,-160 -10,0 -19,-5 -19,-14 0,-7 -20,-22 -47,-33 -25,-11 -51,-26 -55,-35 -6,-8 -21,-15 -35,-15 -14,0 -44,-10 -67,-21 -41,-21 -214,-48 -282,-46 -19,0 -75,7 -125,14l0 0zm821 2166c78,25 134,52 172,86 123,101 167,141 299,268 81,78 171,162 201,187 31,27 62,56 67,64 6,10 21,18 31,18 11,0 20,7 20,14 0,8 12,20 25,24 13,5 49,26 80,47 32,21 104,64 164,96 58,32 106,65 106,75 0,12 -31,21 -95,26 -55,4 -110,15 -125,22 -34,18 -289,21 -300,3 -5,-7 -43,-17 -88,-22 -43,-4 -97,-17 -121,-28 -22,-10 -69,-32 -104,-47 -107,-49 -133,-67 -336,-228 -22,-17 -56,-46 -76,-64 -138,-116 -411,-268 -567,-314 -88,-26 -75,-59 36,-97 50,-17 103,-37 118,-46 47,-25 218,-76 290,-86 109,-15 152,-15 203,2zm-626 423c94,34 265,127 275,147 3,7 12,11 22,11 10,0 35,19 57,42 22,22 46,42 53,42 11,0 132,91 148,112 5,6 56,45 114,86 257,185 460,253 747,252 162,0 363,-29 496,-71 117,-38 111,-17 -22,96 -17,14 -37,25 -49,25 -9,0 -26,10 -36,21 -8,11 -30,23 -45,29 -17,4 -41,16 -52,26 -26,22 -242,107 -368,146 -118,35 -454,53 -621,31 -190,-25 -425,-170 -553,-342 -26,-35 -61,-81 -76,-99 -15,-19 -49,-76 -75,-127 -25,-53 -53,-105 -58,-116 -13,-21 -34,-66 -56,-118 -5,-15 -19,-55 -28,-90 -9,-35 -22,-68 -29,-76 -5,-7 -11,-24 -11,-38 0,-35 47,-32 167,11l0 0zm-338 57c11,29 25,71 31,95 7,22 22,66 36,97 85,187 122,266 133,284 7,12 24,39 38,60 37,64 128,178 205,260 106,114 124,183 124,472 0,192 -4,239 -25,285 -96,210 -132,267 -264,405 -107,113 -153,132 -139,56 4,-24 18,-67 31,-93 32,-68 32,-379 0,-486 -13,-42 -28,-100 -32,-128 -6,-28 -18,-69 -29,-90 -11,-21 -21,-46 -21,-54 0,-17 -42,-125 -85,-224 -15,-33 -26,-64 -26,-69 0,-12 -45,-130 -78,-209 -11,-23 -20,-58 -20,-76 0,-18 -5,-39 -11,-47 -26,-30 -44,-135 -44,-259 0,-103 5,-141 28,-184 15,-31 27,-60 27,-69 0,-6 17,-34 37,-59 41,-54 54,-49 84,33l0 0zm-357 258c2,162 7,200 55,364 37,132 55,182 93,264 18,39 33,75 33,82 0,6 8,31 19,54 98,228 153,428 170,607 15,157 -46,371 -149,525 -22,34 -40,64 -40,70 0,5 -22,34 -49,65 -26,31 -48,61 -48,67 0,7 -13,9 -29,7 -28,-5 -69,-91 -92,-192 -4,-19 -13,-42 -18,-49 -6,-8 -32,-66 -57,-132 -25,-65 -54,-130 -64,-145 -10,-16 -18,-41 -18,-56 0,-15 -13,-43 -28,-62 -15,-20 -28,-46 -28,-59 0,-12 -5,-26 -12,-30 -7,-5 -17,-25 -22,-46 -5,-22 -24,-74 -42,-116 -75,-177 -132,-426 -132,-575 1,-129 56,-355 86,-355 6,0 11,-11 11,-24 0,-59 318,-444 352,-425 5,3 9,77 9,161zm1236 823c20,9 60,21 91,25 30,5 83,15 118,22 94,21 358,18 422,-6 31,-11 61,-15 68,-11 18,11 3,416 -19,560 -42,274 -43,276 -199,315 -75,18 -108,20 -199,7 -216,-32 -418,-79 -448,-107 -11,-9 -34,-21 -49,-23 -41,-7 -41,-46 0,-141 21,-47 46,-105 56,-127 32,-75 51,-296 37,-417 -7,-61 -9,-115 -7,-121 7,-12 84,1 129,24l0 0z"/>
    <path class="fil0" d="M13238 7112c-168,38 -306,136 -425,303 -45,63 -88,118 -95,122 -12,10 -70,-5 -126,-30 -60,-27 -94,-21 -115,19 -24,49 -10,68 69,95 34,9 85,32 116,47 55,30 55,29 211,333 20,38 69,113 108,167 150,201 299,322 435,348 25,5 48,14 52,21 5,7 74,13 156,13 140,0 201,-10 433,-65 50,-12 110,-24 132,-28 24,-3 74,-14 111,-25 192,-54 287,-77 367,-89 49,-8 103,-24 121,-36 36,-24 35,-36 -31,-166 -18,-38 -33,-77 -33,-87 0,-10 -6,-18 -11,-18 -6,0 -18,-17 -28,-39 -8,-21 -32,-60 -51,-86 -18,-26 -57,-82 -86,-124 -70,-98 -323,-351 -438,-436 -50,-36 -123,-83 -165,-104 -42,-21 -85,-44 -96,-51 -40,-25 -161,-64 -257,-84 -118,-23 -253,-23 -354,0l0 0zm390 242c32,17 67,29 74,29 8,0 43,14 78,32 229,117 476,343 633,581 86,130 80,154 -45,177 -37,7 -84,20 -105,28 -21,9 -81,22 -132,31 -53,8 -100,21 -108,26 -30,24 -248,45 -399,39 -143,-4 -162,-8 -219,-44 -64,-41 -223,-186 -223,-206 0,-5 -25,-43 -55,-83 -31,-41 -56,-89 -56,-107 0,-29 4,-32 47,-25 27,4 71,18 99,32 47,22 51,22 76,-2 56,-50 25,-98 -83,-133 -251,-81 -264,-93 -203,-192 55,-83 170,-168 300,-215 48,-18 261,4 321,32z"/>
    <path class="fil0" d="M4446 7328c-26,7 -66,16 -90,22 -22,5 -60,25 -81,41 -22,19 -45,34 -54,34 -7,0 -46,29 -84,65 -156,145 -228,221 -656,693 -53,60 -65,82 -54,99 12,21 79,61 221,133 98,52 309,124 430,149 46,9 96,22 111,29 52,21 386,42 528,32 165,-11 145,-7 264,-45 214,-66 346,-148 437,-273 31,-42 56,-82 56,-89 0,-8 14,-38 31,-67 26,-46 30,-76 33,-230 1,-109 10,-185 19,-198 9,-9 60,-26 113,-36 121,-20 144,-37 132,-87 -6,-21 -20,-42 -32,-46 -13,-6 -90,4 -174,22l-150 29 -183 -89c-174,-83 -297,-134 -415,-173 -66,-21 -339,-32 -402,-15l0 0zm377 175c11,8 41,19 68,25 48,8 75,19 194,76 35,15 70,29 79,29 9,0 21,6 25,14 10,17 -57,45 -183,75 -94,24 -101,28 -101,63 1,84 32,87 290,22 173,-45 182,-41 182,103 0,157 -31,237 -127,341 -77,82 -113,104 -283,171 -67,26 -271,51 -389,47 -150,-4 -396,-30 -451,-50 -35,-11 -106,-33 -160,-48 -154,-46 -292,-106 -296,-131 -4,-21 13,-44 109,-147 19,-21 75,-83 125,-139 276,-308 350,-372 507,-442 59,-26 91,-30 230,-27 93,1 170,9 181,18l0 0z"/>
    <path class="fil0" d="M36977 7712c-260,161 -413,338 -579,671l-80 160 7 514c12,715 53,1011 191,1328 75,175 130,263 240,382 139,150 262,226 485,301 101,35 275,94 386,133 286,100 439,131 666,132 221,2 363,-23 542,-97 65,-28 158,-58 208,-69 327,-73 620,-250 752,-456 125,-193 146,-464 47,-615l-24 -35 -50 49c-68,63 -179,125 -311,168 -589,197 -1219,80 -1451,-267 -53,-78 -56,-90 -65,-219 -11,-166 -24,-255 -85,-589 -119,-656 -114,-820 36,-1161 50,-113 56,-139 49,-192 -13,-77 -56,-145 -120,-181 -44,-26 -75,-29 -382,-33l-333 -4 -129 80 0 0z"/>
    <path class="fil0" d="M53870 7690c-288,174 -433,339 -610,689l-78 157 0 399c0,220 7,487 14,594 47,635 197,1035 484,1300 138,128 212,165 530,278 588,204 670,223 945,226 220,2 363,-23 541,-98 66,-27 159,-57 209,-68 323,-71 609,-244 748,-452 84,-123 118,-251 109,-393 -7,-104 -34,-199 -69,-242 -11,-12 -27,-4 -73,38 -128,118 -452,226 -743,250 -446,36 -840,-103 -1011,-356 -52,-77 -54,-86 -64,-226 -6,-81 -28,-253 -52,-382 -155,-894 -155,-1003 3,-1362 50,-113 56,-139 49,-192 -13,-77 -56,-145 -120,-181 -44,-26 -75,-29 -382,-33l-333 -4 -97 58 0 0z"/>
    <path class="fil0" d="M68641 7648c-924,75 -1853,406 -2493,887 -242,183 -563,515 -671,697 -99,165 -127,587 -72,1123l33 321 42 22c83,43 120,81 204,202 44,66 91,129 103,140 58,58 597,222 888,270 227,36 668,33 938,-9 671,-101 1290,-364 2090,-882 132,-86 140,-89 165,-66 14,12 39,51 55,86 25,54 29,103 37,368 8,334 14,355 102,448 66,70 162,92 336,81 432,-29 652,-163 751,-453 36,-105 33,-405 -6,-694 -158,-1141 -159,-1353 -9,-1698l48 -113 -79 -82c-233,-238 -380,-310 -1093,-539l-389 -124 -416 2c-231,1 -484,8 -564,13l0 0zm1044 985c86,15 210,42 275,59l118 31 4 81c6,99 -26,217 -82,303 -52,82 -179,204 -283,269 -147,95 -880,397 -1055,436 -69,16 -244,57 -389,92 -538,129 -739,172 -855,188 -150,18 -412,18 -526,0 -93,-16 -328,-88 -362,-112 -43,-29 419,-436 757,-665 563,-385 1083,-604 1625,-687 195,-31 583,-28 773,5l0 0z"/>
    <path class="fil0" d="M42856 7698c-756,89 -1485,357 -2147,789 -142,93 -193,135 -267,224 -57,68 -96,128 -101,158 -21,100 36,395 89,457 27,34 9,31 711,106 662,71 1130,121 1805,194 325,36 699,77 831,91 133,13 243,27 244,30 4,6 109,181 116,195 5,11 -217,130 -399,212 -368,167 -751,256 -1285,300 -190,15 -550,14 -1694,-10 -479,-11 -467,-12 -549,82l-46 53 24 58c30,81 211,318 319,421 150,140 338,222 607,261 199,29 261,29 714,-12 427,-39 427,-39 1167,-235 446,-118 576,-162 797,-267 300,-141 554,-337 672,-516 93,-142 174,-311 199,-417 28,-117 22,-419 -10,-478 -50,-94 -329,-254 -568,-327 -279,-85 -548,-121 -903,-120 -291,1 -358,7 -1090,103 -175,22 -437,51 -583,64 -263,23 -264,23 -429,-7 -92,-17 -184,-40 -203,-50 -54,-28 -111,-100 -111,-139 0,-40 89,-93 365,-218 486,-221 924,-343 1376,-388 218,-20 677,-9 884,23 287,43 600,132 836,238 98,45 111,39 240,-86 139,-134 183,-262 154,-441 -9,-63 -14,-70 -75,-96 -237,-104 -666,-214 -964,-247 -123,-13 -627,-17 -726,-5l0 0z"/>
    <path class="fil0" d="M8823 7817c-113,12 -317,62 -330,81 -4,7 -16,13 -29,13 -11,0 -84,32 -162,71 -185,93 -221,112 -278,157 -26,19 -53,36 -58,36 -14,0 -224,180 -307,262 -39,41 -104,113 -146,163 -40,48 -85,89 -99,89 -12,0 -54,-21 -90,-46 -104,-74 -457,-240 -572,-271 -315,-82 -300,-82 -625,-36 -27,4 -61,12 -77,19 -15,6 -50,20 -76,30 -103,36 -275,123 -361,182 -164,109 -321,227 -535,395 -46,38 -133,105 -194,149 -61,46 -135,100 -163,122 -28,21 -55,39 -61,39 -5,0 -29,15 -53,33 -23,17 -61,43 -84,56 -23,12 -60,35 -84,50 -22,15 -58,36 -79,49 -72,40 -60,52 163,168 214,108 330,173 355,194 11,11 32,20 45,20 12,0 25,5 29,12 7,10 62,39 368,188l62 29 -7 104c-11,198 -1,435 21,498 13,34 22,74 22,91 0,16 13,54 28,84 16,31 28,62 28,70 0,8 25,50 56,92 57,76 145,145 204,159 51,14 393,-44 630,-107 64,-16 152,-37 193,-47 42,-10 93,-25 113,-32 46,-18 55,-11 147,102 86,104 181,195 289,276 46,35 92,71 103,79 39,33 259,138 350,165 73,24 100,27 123,14 16,-8 25,-21 21,-28 -14,-22 -7,-437 9,-493 8,-30 19,-90 26,-132 5,-41 19,-98 32,-125 11,-26 35,-86 51,-131 17,-46 35,-94 41,-105 26,-51 48,-91 59,-111 7,-11 21,-40 34,-62 11,-24 36,-67 54,-97 57,-98 159,-300 159,-317 0,-10 10,-36 23,-58 12,-24 25,-92 29,-160 7,-102 3,-131 -24,-195 -51,-127 -78,-177 -115,-219 -14,-14 -24,-32 -24,-40 0,-9 -5,-18 -12,-21 -7,-3 -57,-61 -113,-129 -94,-118 -172,-199 -275,-288 -54,-47 -68,-98 -43,-146 11,-21 85,-104 166,-186 140,-143 369,-319 493,-380 30,-14 64,-32 73,-41 38,-26 260,-119 288,-119 16,0 51,-11 78,-24 65,-33 379,-32 470,0 35,13 71,24 81,24 28,0 233,105 307,157 158,111 226,194 276,340 38,106 39,197 4,320 -59,215 -195,380 -390,472 -68,33 -93,37 -236,37 -157,0 -162,-1 -265,-51 -59,-28 -114,-61 -124,-74 -10,-11 -25,-21 -35,-21 -25,0 -186,-166 -215,-222 -43,-86 -47,-133 -14,-201 38,-79 109,-140 218,-190 77,-35 103,-39 223,-39 116,1 145,5 205,34l70 35 52 -57c28,-30 52,-58 52,-60 0,-9 -53,-63 -63,-63 -7,0 -46,-17 -87,-37 -74,-34 -86,-36 -252,-30 -180,7 -176,5 -361,93 -65,31 -183,153 -221,226 -47,98 -43,250 10,357 60,116 164,223 311,318 231,150 417,199 618,163 402,-70 710,-445 711,-861 0,-70 -5,-132 -11,-139 -7,-8 -21,-42 -30,-77 -42,-131 -156,-288 -264,-361 -27,-18 -56,-39 -63,-47 -32,-35 -302,-173 -382,-196 -154,-44 -336,-61 -484,-46l0 1zm-2099 731c65,25 129,49 144,53 67,21 141,71 145,97 4,25 -7,32 -74,46 -204,43 -375,139 -777,439 -124,92 -241,172 -250,172 -6,0 -30,16 -53,34 -49,36 -220,119 -245,119 -9,0 -55,13 -102,29 -75,27 -109,29 -260,23 -106,-5 -196,-16 -229,-28 -31,-13 -95,-29 -142,-39 -49,-8 -99,-25 -111,-35 -24,-17 -24,-19 3,-43 15,-14 55,-43 90,-67 35,-22 93,-66 130,-97 38,-30 95,-75 128,-97 129,-92 346,-261 357,-279 6,-11 21,-20 31,-20 11,0 21,-4 21,-11 0,-5 20,-22 45,-39 24,-15 89,-57 142,-91 132,-86 228,-134 368,-181 113,-37 127,-39 320,-33 184,4 211,8 319,48l0 0zm617 378c12,11 -27,68 -49,68 -35,0 -343,236 -453,347 -98,100 -221,256 -269,345 -32,58 -54,74 -228,165 -75,39 -158,71 -208,81 -31,4 -82,18 -116,29 -31,11 -100,19 -148,19 -102,0 -346,-48 -392,-77 -16,-12 -40,-20 -50,-20 -32,0 -273,-117 -273,-132 0,-8 62,-14 163,-15 155,0 285,-25 399,-75 188,-82 272,-132 508,-303 417,-298 548,-383 617,-398 24,-6 51,-13 63,-19 80,-31 158,-41 284,-36 77,5 145,14 152,21l0 0zm347 263c36,41 80,91 97,111 17,19 46,57 64,83 18,27 47,64 65,82 92,95 136,278 103,427 -17,73 -94,233 -179,373 -61,100 -197,378 -221,452 -11,34 -37,130 -60,213 -44,171 -58,193 -84,143 -11,-18 -35,-61 -53,-94 -45,-81 -113,-250 -113,-279 0,-13 -9,-60 -20,-104 -12,-43 -21,-109 -21,-145 0,-93 48,-318 98,-457 23,-65 50,-144 61,-177 10,-34 24,-67 31,-77 12,-17 37,-97 86,-267 14,-54 31,-154 36,-222 14,-176 13,-176 110,-62l0 0zm-289 44c-6,40 -15,96 -22,122 -42,170 -79,296 -113,375 -46,111 -111,305 -150,448 -22,79 -29,145 -29,263 0,138 6,180 43,303 24,79 50,157 57,172 8,17 20,39 25,50 27,59 110,210 149,270 69,107 43,114 -93,21 -235,-159 -506,-509 -581,-749 -80,-258 -89,-348 -46,-497 32,-108 117,-299 150,-336 10,-11 49,-58 85,-104 124,-152 442,-410 508,-410 24,0 25,7 17,72l0 0zm-962 813c4,14 8,93 8,177 3,185 25,270 119,467 52,107 42,131 -59,153 -43,8 -105,25 -135,35 -31,11 -86,26 -125,33 -231,47 -370,69 -428,69 -58,0 -74,-7 -112,-45 -25,-25 -53,-68 -63,-95 -10,-26 -26,-67 -36,-89 -42,-94 -64,-565 -29,-600 5,-5 126,-11 269,-11l260 -1 153 -59c84,-30 157,-57 162,-57 6,-1 13,10 16,23l0 0z"/>
    <path class="fil0" d="M9174 9885c-28,9 -31,22 -36,133l-4 122 -203 202c-288,286 -374,413 -415,627 -17,82 -16,107 7,216 14,66 34,137 47,157 12,19 33,59 48,90 35,78 27,62 230,366 58,87 112,169 119,181 158,246 200,307 213,307 23,0 213,-169 313,-278 94,-101 149,-178 256,-347 36,-57 86,-158 86,-175 0,-8 10,-24 21,-33 11,-10 24,-39 29,-68 6,-28 18,-67 28,-87 29,-59 75,-301 75,-402 0,-379 -221,-654 -597,-743 -57,-14 -113,-31 -121,-38 -13,-10 -15,-42 -10,-112 8,-95 8,-100 -23,-114 -20,-10 -46,-11 -63,-4l0 0zm157 491c26,11 64,21 81,21 16,0 38,10 48,21 8,11 31,24 46,29 17,4 57,31 89,57 240,194 180,722 -131,1169 -97,139 -200,252 -230,252 -18,0 -310,-424 -368,-535 -93,-179 -103,-212 -96,-330 5,-120 36,-220 80,-268 14,-16 27,-34 27,-42 0,-7 22,-38 50,-68 157,-178 179,-185 179,-49 0,106 10,125 61,125 63,0 71,-21 71,-175 0,-151 10,-228 30,-228 7,0 35,10 63,21l0 0z"/>
   </g>
  </g>
 </g>
</svg>
